<svg xmlns="http://www.w3.org/2000/svg" viewBox="0 0 1100 700" role="img" aria-label="Model Loss Across 80:20 and 70:30 Splits"><rect width="100%" height="100%" fill="white"/><text x="550.0" y="38" text-anchor="middle" font-family="Arial,Helvetica,sans-serif" font-size="26" font-weight="600">Model Loss Across 80:20 and 70:30 Splits</text><line x1="100" y1="555.0" x2="1065" y2="555.0" stroke="#d0d0d0"/><text x="86" y="560.0" text-anchor="end" font-family="Arial,Helvetica,sans-serif" font-size="16">0</text><line x1="100" y1="441.9" x2="1065" y2="441.9" stroke="#d0d0d0"/><text x="86" y="446.9" text-anchor="end" font-family="Arial,Helvetica,sans-serif" font-size="16">0.5</text><line x1="100" y1="328.8" x2="1065" y2="328.8" stroke="#d0d0d0"/><text x="86" y="333.8" text-anchor="end" font-family="Arial,Helvetica,sans-serif" font-size="16">1</text><line x1="100" y1="215.7" x2="1065" y2="215.7" stroke="#d0d0d0"/><text x="86" y="220.7" text-anchor="end" font-family="Arial,Helvetica,sans-serif" font-size="16">1.5</text><line x1="100" y1="102.6" x2="1065" y2="102.6" stroke="#d0d0d0"/><text x="86" y="107.6" text-anchor="end" font-family="Arial,Helvetica,sans-serif" font-size="16">2</text><rect x="100" y="80" width="965" height="475" fill="none" stroke="#111" stroke-width="2"/><text x="28" y="317.5" text-anchor="middle" transform="rotate(-90 28 317.5)" font-family="Arial,Helvetica,sans-serif" font-size="18">Loss</text><rect x="194.4" y="148.8" width="133.0" height="406.2" fill="#1f77b4"/><text x="260.8" y="138.8" text-anchor="middle" font-family="Arial,Helvetica,sans-serif" font-size="16" font-weight="600">1.80</text><text x="260.8" y="590.0" text-anchor="end" transform="rotate(-35 260.8 590.0)" font-family="Arial,Helvetica,sans-serif" font-size="15">CNN — 80:20</text><rect x="408.8" y="101.7" width="133.0" height="453.3" fill="#1f77b4"/><text x="475.3" y="91.7" text-anchor="middle" font-family="Arial,Helvetica,sans-serif" font-size="16" font-weight="600">2.00</text><text x="475.3" y="590.0" text-anchor="end" transform="rotate(-35 475.3 590.0)" font-family="Arial,Helvetica,sans-serif" font-size="15">CNN — 70:30</text><rect x="623.2" y="268.7" width="133.0" height="286.3" fill="#1f77b4"/><text x="689.7" y="258.7" text-anchor="middle" font-family="Arial,Helvetica,sans-serif" font-size="16" font-weight="600">1.27</text><text x="689.7" y="590.0" text-anchor="end" transform="rotate(-35 689.7 590.0)" font-family="Arial,Helvetica,sans-serif" font-size="15">Fine-tuned InceptionV3 — 80:20</text><rect x="837.7" y="172.1" width="133.0" height="382.9" fill="#1f77b4"/><text x="904.2" y="162.1" text-anchor="middle" font-family="Arial,Helvetica,sans-serif" font-size="16" font-weight="600">1.69</text><text x="904.2" y="590.0" text-anchor="end" transform="rotate(-35 904.2 590.0)" font-family="Arial,Helvetica,sans-serif" font-size="15">Fine-tuned InceptionV3 — 70:30</text></svg>